PathFileType	4	(X/Y/Z)	OpenSim_Sub04_EMGStiffKnee_Gyro.trc
DataRate	CameraRate	NumFrames	NumMarkers	Units	OrigDataRate	OrigDataStartFrame	OrigNumFrames
100	100	37	8	m	100	4139	8277
Frame#	Time	torso_imu_offset_imu	pelvis_imu_offset_imu	tibia_r_imu_offset_imu	femur_r_imu_offset_imu	tibia_l_imu_offset_imu	femur_l_imu_offset_imu	toes_r_imu_offset_imu	toes_l_imu_offset_imu
				X1	Y1	Z1	X2	Y2	Z2	X3	Y3	Z3	X4	Y4	Z4	X5	Y5	Z5	X6	Y6	Z6	X7	Y7	Z7	X8		Y8	Z8	

4139	41.38000000	0.03339609	-0.04794563	-0.08571652	-0.34874797	-0.19454230	-0.23726998	-0.34598302	-0.08441925	-0.97131456	-0.35042223	0.01194150	-0.34382055	0.06621309	0.04346834	-1.30695922	-0.53502578	0.02105585	-0.35222782	0.07445056	-0.74682300	-0.35187340	0.56665475	1.13203903	-0.38008245
4140	41.39000000	0.06489783	-0.05941705	-0.11102215	-0.31765218	-0.21767489	-0.17940010	-0.30065747	-0.06572418	-0.98549476	-0.28359924	0.02585377	-0.41311586	0.01262977	0.01481388	-1.07542850	-0.38894547	0.03810562	-0.32599597	0.01948289	-0.84553059	-0.29654716	0.47974044	1.04320520	-0.29934634
4141	41.40000000	0.09340545	-0.06156581	-0.12326537	-0.27216406	-0.24293840	-0.11156923	-0.27057021	-0.05447040	-1.02776688	-0.21423683	0.06913179	-0.46629826	-0.02912593	-0.06426135	-0.88735129	-0.24189557	0.04533030	-0.31975855	0.04445214	-0.95187341	-0.26065882	0.49072498	0.72029942	-0.22306955
4142	41.41000000	0.11263936	-0.06162983	-0.13324660	-0.23268185	-0.29819916	-0.04415483	-0.24169643	-0.03714996	-1.08911583	-0.15267683	0.12195370	-0.48915671	0.06657395	-0.15961311	-0.73387685	-0.07735863	0.03451544	-0.33451581	0.05736554	-1.09338716	-0.23874279	0.62112288	0.27387876	-0.16394009
4143	41.42000000	0.13751625	-0.06805736	-0.13385022	-0.20730305	-0.36689873	0.02591656	-0.18937268	-0.03641990	-1.15216269	-0.09944773	0.17485067	-0.48983777	0.10005061	-0.25774158	-0.55303920	0.08987371	0.03411569	-0.37395220	0.04963646	-1.23898957	-0.22454362	0.44738837	-0.11688570	0.00311115
4144	41.43000000	0.17528476	-0.05935237	-0.12307440	-0.18594519	-0.41804116	0.08684820	-0.16711498	-0.04564845	-1.23255029	-0.07996800	0.22250101	-0.45695995	-0.05926228	-0.28949869	-0.27085837	0.20836417	0.05300380	-0.41452276	0.05810438	-1.44771029	-0.26722934	0.38144716	-0.45982221	0.12483461
4145	41.44000000	0.20325133	-0.04429204	-0.11183229	-0.17028430	-0.45895688	0.14364537	-0.15127366	-0.05243982	-1.35706363	-0.08070488	0.26450931	-0.37915981	-0.30593773	-0.24921328	0.10409641	0.27161410	0.06121650	-0.45119937	0.06987141	-1.62281850	-0.32293264	0.43610638	-0.97685920	0.10117402
4146	41.45000000	0.23020418	-0.03940197	-0.09194079	-0.16954485	-0.49074294	0.20351107	-0.13577125	-0.08071979	-1.52179005	-0.08634810	0.29985750	-0.26785542	-0.42478654	-0.29740720	0.51592622	0.27832819	0.02728709	-0.48361012	0.00618259	-1.76496234	-0.34241174	0.47497194	-1.63665562	0.12611879
4147	41.46000000	0.26221556	-0.04379682	-0.07117290	-0.19133967	-0.52242824	0.25529959	-0.12771970	-0.11368352	-1.71454303	-0.10094646	0.32962005	-0.12534399	-0.59111410	-0.41475505	0.94593746	0.21116413	-0.05198649	-0.50487365	-0.01987466	-1.91466889	-0.36026778	-0.51699552	-2.75541282	-0.10066708
4148	41.47000000	0.30651745	-0.05236638	-0.05669160	-0.25009034	-0.56675336	0.29880018	-0.11213881	-0.16067887	-1.92439345	-0.11225607	0.36260416	0.04192525	-0.98068933	-0.46287949	1.46394731	0.12486855	-0.18447111	-0.49823128	-0.10402345	-2.06740171	-0.34292027	-1.68398713	-1.82125136	-0.07456474
4149	41.48000000	0.36432989	-0.07564480	-0.04036319	-0.34014695	-0.61891182	0.31969845	-0.11422070	-0.16068299	-2.15850517	-0.06469075	0.41816104	0.24362761	-1.73518060	-0.32241251	2.17104193	0.08750142	-0.38938855	-0.42505023	-0.20140004	-2.29691165	-0.32332651	-2.37961884	0.65539215	0.38575566
4150	41.49000000	0.41421125	-0.09442694	-0.02615937	-0.45994010	-0.65404685	0.31037165	-0.02491016	-0.23629303	-2.43123098	0.11771095	0.47076418	0.48678167	-1.72385951	-0.66874534	2.55464935	0.06193327	-0.59544707	-0.34147556	-0.18932902	-2.69294070	-0.37016245	-0.88317912	0.33961603	0.25764586
4151	41.50000000	0.44785012	-0.07542146	-0.03983832	-0.56586254	-0.64518914	0.25241559	0.01380385	-0.37596201	-2.69267066	0.43398945	0.49130350	0.76479982	-0.67046785	-1.12973824	2.18133144	-0.20344437	-0.74084368	-0.24511640	-0.16192990	-3.22037017	-0.48958582	0.22201346	-0.19387976	0.05251902
4152	41.51000000	0.48882154	-0.07733024	-0.05281936	-0.58397087	-0.55009634	0.13717714	0.03064203	-0.43960142	-2.86140388	0.84904249	0.53683181	1.05030966	-0.45281647	-0.71790307	1.52155504	-0.67480756	-0.76488347	-0.05278710	-0.21732339	-3.80748111	-0.65537966	-0.48624359	0.21029539	0.05487257
4153	41.52000000	0.52240636	-0.12316810	-0.05281287	-0.54795124	-0.41166836	-0.01943151	0.16187178	-0.51373243	-2.94157643	1.28680896	0.65015874	1.31280967	-0.49444615	-0.43868611	0.92450579	-0.84770678	-0.67061033	0.08502155	-0.34493529	-4.38954503	-0.87730403	-0.07810561	0.01741596	0.03691157
4154	41.53000000	0.51538852	-0.15734476	-0.06743990	-0.47550443	-0.32799532	-0.17189248	0.29188124	-0.56646723	-2.97997888	1.54990365	0.78896871	1.60156354	-0.27788256	-0.57468351	0.58909892	-0.50596707	-0.59130596	0.24437464	-0.42696694	-4.84579077	-1.10470508	-0.02279386	-0.06225086	0.01508240
4155	41.54000000	0.51497269	-0.16613588	-0.09318852	-0.35733468	-0.29906497	-0.27717022	0.52747490	-0.56372627	-3.00566778	1.57276405	0.88496318	1.93018392	-0.40220873	-0.46216374	0.51705954	0.01758330	-0.52042969	0.54638978	-0.55100156	-5.11527301	-1.25453751	0.09005755	-0.06506888	-0.13693967
4156	41.55000000	0.51095135	-0.16547347	-0.12691841	-0.21445023	-0.27210418	-0.33051266	0.81455305	-0.57029557	-3.00091161	1.44052251	0.90005409	2.22867865	-0.22668916	-0.49297827	0.69763218	0.30586526	-0.37184203	0.76167301	-0.34036446	-4.86066982	-1.44388775	0.25895290	-0.11429210	-0.21153633
4157	41.56000000	0.48769565	-0.15629323	-0.15995871	-0.05320663	-0.20143080	-0.36344451	1.00785491	-0.57130634	-2.92773890	1.11251679	0.82488772	2.45523212	0.12897187	-0.63531254	1.04192412	0.30600343	-0.15291321	0.80698506	-0.07308274	-4.68130008	-1.64020185	0.22302733	-0.15031372	-0.19223162
4158	41.57000000	0.43229619	-0.11967362	-0.18360860	0.07116939	-0.07958711	-0.40940855	1.16122818	-0.50924322	-2.77380103	0.60592222	0.70329779	2.56665863	0.29254807	-0.50716782	1.12049198	0.22206301	0.07803286	0.73549551	-0.00215171	-4.51224675	-1.70622411	0.13062514	-0.08780825	-0.13895208
4159	41.58000000	0.35461211	-0.06002104	-0.20655324	0.12153457	0.04982288	-0.43709141	1.18606388	-0.41901043	-2.51820560	0.15839870	0.59557149	2.55081125	0.30067823	-0.53335643	1.00350572	0.17255827	0.21904553	0.62912802	0.68131733	-3.96491981	-1.77442510	0.03625074	-0.16807076	-0.04334883
4160	41.59000000	0.28615825	-0.01236123	-0.23232955	0.13495072	0.16826696	-0.41993429	1.15030893	-0.35352895	-2.21534558	0.03073446	0.50601264	2.45128874	0.20391665	-0.64390283	0.85374015	0.22671716	0.19936726	0.52233804	0.42007726	-2.62867503	-1.17212386	-0.10493672	-0.17044269	0.08177202
4161	41.60000000	0.22908400	0.01511720	-0.25981305	0.15718231	0.25719654	-0.35822629	1.14015527	-0.35818675	-1.86779634	0.24472707	0.42872634	2.30111402	0.10434469	-0.53681324	0.71437968	0.39016758	0.02432381	0.40967482	0.36582276	-0.87079909	-0.26261244	-0.24991197	-0.07736709	0.16542963
4162	41.61000000	0.20940687	0.04625893	-0.29755711	0.16598868	0.28246224	-0.24572179	0.68669548	-0.48174290	-1.37680457	0.53320800	0.41503751	2.06935629	-0.04818279	-0.42881358	0.63415725	0.50665440	-0.23950812	0.34173431	0.76891269	-0.69359686	-0.02349574	-0.25033814	-0.08908833	0.18269285
4163	41.62000000	0.20987126	0.09437282	-0.33471139	0.11431897	0.23504961	-0.08162142	-0.00269518	-0.41870113	-0.64957087	0.63812029	0.53164513	1.83071807	-0.14828491	-0.35687156	0.58194333	0.45762782	-0.47765770	0.35319071	0.40355274	-0.51415583	0.20640978	-0.23367410	-0.06305609	0.18370133
4164	41.63000000	0.20637045	0.12458204	-0.36436783	0.04789092	0.13891343	0.09132549	-0.14260761	0.02383693	0.29054932	0.50479008	0.69675948	1.75109393	-0.16010257	-0.28657757	0.56474556	0.29926294	-0.62370120	0.41003799	0.25816361	0.57861895	0.50056288	-0.21964332	-0.05931104	0.17936444
4165	41.64000000	0.20191845	0.12044001	-0.37358642	0.01591983	0.07262204	0.23530384	0.28243402	0.33650854	1.16615872	0.18288501	0.80710860	1.83678058	-0.15470819	-0.28647243	0.54061120	0.17423316	-0.69194812	0.49300282	0.01000532	1.21897928	0.45786833	-0.15145937	-0.06214349	0.13885379
4166	41.65000000	0.21246599	0.11269278	-0.36420126	-0.00375213	0.04995191	0.34858539	0.46339542	0.32200977	1.80912707	-0.24940736	0.88470452	1.94075186	-0.07927743	-0.28423822	0.51900040	0.13650792	-0.68945619	0.60397311	-0.22916139	1.68634867	0.33927106	-0.09864272	-0.09828702	0.10788891
4167	41.66000000	0.25111420	0.12757476	-0.35147331	-0.02806858	0.04178420	0.41907484	0.21745582	0.38043212	2.32052177	-0.65532458	0.93794458	1.96175473	0.06744902	-0.24893358	0.50244458	0.14213692	-0.61997073	0.69252373	-0.46232737	2.27677343	0.38092718	-0.06943615	-0.11553533	0.09933845
4168	41.67000000	0.29746383	0.15383406	-0.32331462	-0.03950982	0.00981980	0.44601238	0.01967569	0.55774450	2.78454197	-0.86581656	0.94822617	1.92167723	0.18661908	-0.23657196	0.50445530	0.14279304	-0.49193925	0.70954947	-0.61983787	2.84536826	0.50435396	-0.04410895	-0.12727129	0.09326117
4169	41.68000000	0.33123360	0.17153699	-0.28048708	-0.03067202	-0.03379301	0.44018163	-0.10557433	0.62998262	3.17212748	-0.83842144	0.92489089	1.85091787	0.26364590	-0.21820185	0.53559361	0.15743379	-0.36232738	0.65856315	-0.71642651	3.29762217	0.63078271	-0.02705554	-0.13400450	0.09329912
4170	41.69000000	0.36141915	0.18781986	-0.23129156	-0.01475172	-0.04969412	0.41918658	-0.32128651	0.66078314	3.47388848	-0.66804031	0.86240879	1.78411430	0.33922370	-0.22145916	0.55845903	0.22810940	-0.28899396	0.58138656	-0.80215585	3.66771443	0.74868769	-0.01324501	-0.13643384	0.10900935
4171	41.70000000	0.36838820	0.19578846	-0.17282355	-0.00044299	-0.04520277	0.38786592	-0.68803477	0.77276881	3.74304485	-0.41816369	0.77115545	1.72103932	0.39094029	-0.22764728	0.55582066	0.34373184	-0.25816714	0.50654750	-0.89383023	3.97772136	0.84733529	0.00231946	-0.15644939	0.14725223
4172	41.71000000	0.35776057	0.19787341	-0.12337948	0.02190266	-0.02386694	0.34954174	-1.01497766	0.91939662	3.99599464	-0.07255105	0.67031404	1.62428069	0.43352103	-0.21390149	0.53118997	0.45430988	-0.25999260	0.46785907	-0.95083661	4.21166901	0.90746426	0.02098780	-0.15199572	0.18390011
4173	41.72000000	0.33925276	0.20232501	-0.08502340	0.03380196	-0.01127422	0.32168801	-1.17188420	1.02806772	4.21294173	0.35245289	0.56895627	1.51190506	0.50285211	-0.22115414	0.51932134	0.50544453	-0.28880934	0.49068309	-0.98117070	4.37392046	0.93623641	0.01191323	-0.14174811	0.21461871
4174	41.73000000	0.30570190	0.20931715	-0.04614340	0.04070425	-0.00990991	0.30578672	-1.20684790	1.10698174	4.37969230	0.79596700	0.50156915	1.38747381	0.56563491	-0.21726681	0.52339128	0.48848564	-0.33252467	0.55859794	-1.00781359	4.46824939	0.93676147	-0.01000208	-0.12309522	0.24462605
4175	41.74000000	0.27203177	0.20328799	-0.01574587	0.05206228	-0.01435588	0.29115810	-1.13441883	1.14194695	4.49748255	1.19115601	0.44749527	1.23881957	0.63047850	-0.21562587	0.52843803	0.42511652	-0.37497974	0.63343816	-1.03520006	4.46449849	0.91300321	-0.02430202	-0.12027588	0.26956734
